<?xml version="1.0" encoding="UTF-8" standalone="no"?>
<svg
   height="638.601"
   viewBox="0 0 494.836 638.601"
   width="494.836"
   version="1.1"
   id="svg16"
   sodipodi:docname="about-right-shape.svg"
   inkscape:version="1.1.2 (b8e25be833, 2022-02-05)"
   xmlns:inkscape="http://www.inkscape.org/namespaces/inkscape"
   xmlns:sodipodi="http://sodipodi.sourceforge.net/DTD/sodipodi-0.dtd"
   xmlns="http://www.w3.org/2000/svg"
   xmlns:svg="http://www.w3.org/2000/svg">
  <defs
     id="defs20" />
  <sodipodi:namedview
     id="namedview18"
     pagecolor="#505050"
     bordercolor="#eeeeee"
     borderopacity="1"
     inkscape:pageshadow="0"
     inkscape:pageopacity="0"
     inkscape:pagecheckerboard="0"
     showgrid="false"
     inkscape:zoom="1.1258986"
     inkscape:cx="247.35798"
     inkscape:cy="318.85642"
     inkscape:window-width="1920"
     inkscape:window-height="1017"
     inkscape:window-x="-8"
     inkscape:window-y="-8"
     inkscape:window-maximized="1"
     inkscape:current-layer="svg16" />
  <clipPath
     id="a">
    <path
       d="m175.536 0c-176.345 0 67.064 208.923-88.593 319.3s-87.752 319.3 88.593 319.3 319.3-142.956 319.3-319.3-142.955-319.3-319.3-319.3z"
       id="path2" />
  </clipPath>
  <linearGradient
     id="b"
     gradientUnits="objectBoundingBox"
     x1=".5"
     x2=".5"
     y1="1">
    <stop
       offset="0"
       stop-color="#dddff9"
       id="stop5" />
    <stop
       offset="1"
       stop-color="#d1171a"
       id="stop7"
       style="stop-color:#ff5865;stop-opacity:1" />
  </linearGradient>
  <path
     d="m175.536 0c-176.345 0 67.064 208.923-88.593 319.3s-87.752 319.3 88.593 319.3 319.3-142.956 319.3-319.3-142.955-319.3-319.3-319.3z"
     fill="#d1171a"
     id="path10"
     style="fill:#ff3c32;fill-opacity:1" />
  <g
     clip-path="url(#a)"
     id="g14">
    <path
       d="m319.3 638.6c176.345 0-67.066-208.922 88.593-319.3s87.752-319.3-88.593-319.3-319.3 142.956-319.3 319.3 142.956 319.3 319.3 319.3z"
       fill="url(#b)"
       opacity=".3"
       id="path12" />
  </g>
</svg>
