<?xml version="1.0" encoding="UTF-8" standalone="no"?>
<svg
   height="638.601"
   viewBox="0 0 494.836 638.601"
   width="494.836"
   version="1.1"
   id="svg858"
   sodipodi:docname="about-left-shape.svg"
   inkscape:version="1.1.2 (b8e25be833, 2022-02-05)"
   xmlns:inkscape="http://www.inkscape.org/namespaces/inkscape"
   xmlns:sodipodi="http://sodipodi.sourceforge.net/DTD/sodipodi-0.dtd"
   xmlns="http://www.w3.org/2000/svg"
   xmlns:svg="http://www.w3.org/2000/svg">
  <defs
     id="defs862" />
  <sodipodi:namedview
     id="namedview860"
     pagecolor="#505050"
     bordercolor="#eeeeee"
     borderopacity="1"
     inkscape:pageshadow="0"
     inkscape:pageopacity="0"
     inkscape:pagecheckerboard="0"
     showgrid="false"
     inkscape:zoom="1.199497"
     inkscape:cx="247.18695"
     inkscape:cy="319.30051"
     inkscape:window-width="1920"
     inkscape:window-height="1017"
     inkscape:window-x="-8"
     inkscape:window-y="-8"
     inkscape:window-maximized="1"
     inkscape:current-layer="svg858" />
  <clipPath
     id="a">
    <path
       d="m319.3 0c176.345 0-67.066 208.923 88.593 319.3s87.752 319.3-88.593 319.3-319.3-142.955-319.3-319.3 142.956-319.3 319.3-319.3z"
       transform="translate(297.858 1341)"
       id="path844" />
  </clipPath>
  <linearGradient
     id="b"
     gradientUnits="objectBoundingBox"
     x1=".5"
     x2=".5"
     y2="1">
    <stop
       offset="0"
       stop-color="#dddff9"
       id="stop847" />
    <stop
       offset="1"
       stop-color="#d1171a"
       id="stop849"
       style="stop-color:#ff5865;stop-opacity:1" />
  </linearGradient>
  <path
     d="m319.3 0c176.345 0-67.066 208.923 88.593 319.3s87.752 319.3-88.593 319.3-319.3-142.955-319.3-319.3 142.956-319.3 319.3-319.3z"
     fill="#d1171a"
     id="path852"
     style="fill:#ff3c32;fill-opacity:1" />
  <g
     clip-path="url(#a)"
     transform="translate(-297.858 -1341)"
     id="g856">
    <path
       d="m319.3 0c176.345 0-67.066 208.923 88.593 319.3s87.752 319.3-88.593 319.3-319.3-142.955-319.3-319.3 142.956-319.3 319.3-319.3z"
       fill="url(#b)"
       opacity=".3"
       transform="matrix(-1 0 0 -1 792.694 1979.601)"
       id="path854" />
  </g>
</svg>
