<?xml version="1.0" encoding="UTF-8" standalone="no"?>
<svg
   height="796.067"
   viewBox="0 0 1781.408 796.067"
   width="1781.408"
   version="1.1"
   id="svg11"
   sodipodi:docname="hero-bg.svg"
   inkscape:version="1.1.2 (b8e25be833, 2022-02-05)"
   xmlns:inkscape="http://www.inkscape.org/namespaces/inkscape"
   xmlns:sodipodi="http://sodipodi.sourceforge.net/DTD/sodipodi-0.dtd"
   xmlns="http://www.w3.org/2000/svg"
   xmlns:svg="http://www.w3.org/2000/svg">
  <defs
     id="defs15" />
  <sodipodi:namedview
     id="namedview13"
     pagecolor="#505050"
     bordercolor="#eeeeee"
     borderopacity="1"
     inkscape:pageshadow="0"
     inkscape:pageopacity="0"
     inkscape:pagecheckerboard="0"
     showgrid="false"
     inkscape:zoom="0.3093059"
     inkscape:cx="1372.4277"
     inkscape:cy="71.126997"
     inkscape:window-width="1920"
     inkscape:window-height="1017"
     inkscape:window-x="-8"
     inkscape:window-y="-8"
     inkscape:window-maximized="1"
     inkscape:current-layer="svg11" />
  <linearGradient
     id="a"
     gradientUnits="userSpaceOnUse"
     x1="343.77208"
     x2="343.77208"
     y2="2016.9279"
     gradientTransform="matrix(1.5541326,0,0,0.64344574,286.464,-755.856)"
     y1="1174.141">
    <stop
       offset="0"
       stop-color="#ff3c32"
       id="stop2"
       style="stop-color:#ff5867;stop-opacity:1" />
    <stop
       offset="1"
       stop-color="#6a74ff"
       id="stop4"
       style="stop-color:#bf1c28;stop-opacity:1" />
  </linearGradient>
  <path
     d="m1650.595 755.5c56.3 272.618-131.189 364.024-310.13 505.374-347.561 273.959-503.57 14.469-1065.8 253.673s-359.832-759.047-359.832-759.047z"
     fill="#ff3c32"
     transform="translate(120.633 -755.5)"
     id="path7"
     style="fill:#b40b1a;fill-opacity:1" />
  <path
     d="m 173.316,-0.356 c -41.4,185.71 96.459,247.977 228.027,344.266 255.548,186.624 370.256,9.856 783.643,172.8 413.387,162.944 264.57,-517.07 264.57,-517.07 z"
     fill="url(#a)"
     id="path9"
     style="fill:url(#a)" />
  <g
     id="g973"
     style="opacity:0.24;stroke-width:2.77283;stroke-miterlimit:4;stroke-dasharray:none"
     transform="matrix(14.576009,0,0,14.576009,-318.45593,-1557.8185)">
    <path
       style="fill:none;fill-opacity:1;fill-rule:nonzero;stroke:#ffffff;stroke-width:2.77283;stroke-linecap:butt;stroke-miterlimit:4;stroke-dasharray:none;stroke-opacity:1"
       id="path32933"
       sodipodi:type="arc"
       sodipodi:cx="152.21022"
       sodipodi:cy="-83.406738"
       sodipodi:rx="31.913713"
       sodipodi:ry="31.913649"
       sodipodi:start="2.1599729"
       sodipodi:end="3.789667"
       sodipodi:arc-type="arc"
       transform="rotate(82.510508)"
       sodipodi:open="true"
       d="m 134.47652,-56.873778 a 31.913713,31.913649 0 0 1 -13.73723,-21.235272 31.913713,31.913649 0 0 1 6.0278,-24.56244" />
    <path
       style="fill:none;fill-opacity:1;stroke:#ffffff;stroke-width:2.77283;stroke-linecap:butt;stroke-miterlimit:4;stroke-dasharray:none"
       id="path1857"
       sodipodi:type="arc"
       sodipodi:cx="153.57617"
       sodipodi:cy="-89.83474"
       sodipodi:rx="30.232527"
       sodipodi:ry="27.8486"
       sodipodi:start="2.3881339"
       sodipodi:end="3.9609026"
       sodipodi:open="true"
       sodipodi:arc-type="arc"
       transform="rotate(84.991747)"
       d="m 131.52678,-70.781691 a 30.232527,27.8486 0 0 1 -8.16675,-19.969815 30.232527,27.8486 0 0 1 9.57562,-19.431504" />
    <path
       style="fill:none;fill-opacity:1;stroke:#ffffff;stroke-width:2.77283;stroke-linecap:butt;stroke-miterlimit:4;stroke-dasharray:none"
       id="path2069"
       sodipodi:type="arc"
       sodipodi:cx="27.682974"
       sodipodi:cy="171.74316"
       sodipodi:rx="30.232527"
       sodipodi:ry="27.8486"
       sodipodi:start="2.7520761"
       sodipodi:end="3.9609026"
       sodipodi:arc-type="arc"
       transform="rotate(-28.770379)"
       inkscape:transform-center-y="17.37792"
       inkscape:transform-center-x="41.912653"
       sodipodi:open="true"
       d="M -0.28491755,182.31843 A 30.232527,27.8486 0 0 1 7.0424546,151.39489" />
    <path
       style="fill:none;fill-opacity:1;stroke:#ffffff;stroke-width:2.77283;stroke-linecap:butt;stroke-miterlimit:4;stroke-dasharray:none"
       id="path5199"
       sodipodi:type="arc"
       sodipodi:cx="-38.867496"
       sodipodi:cy="-168.17982"
       sodipodi:rx="19.681105"
       sodipodi:ry="19.681105"
       sodipodi:start="2.7520701"
       sodipodi:end="4.4663277"
       sodipodi:arc-type="arc"
       transform="rotate(157.03697)"
       sodipodi:open="true"
       d="m -57.074299,-160.70599 a 19.681105,19.681105 0 0 1 0.638468,-16.34511 19.681105,19.681105 0 0 1 12.774297,-10.21702" />
    <path
       style="fill:none;fill-opacity:1;stroke:#ffffff;stroke-width:2.77283;stroke-linecap:butt;stroke-miterlimit:4;stroke-dasharray:none"
       id="path5507"
       sodipodi:type="arc"
       sodipodi:cx="-168.67587"
       sodipodi:cy="34.196056"
       sodipodi:rx="19.681105"
       sodipodi:ry="19.681105"
       sodipodi:start="3.1722155"
       sodipodi:end="4.4663277"
       sodipodi:arc-type="arc"
       transform="rotate(-114.91163)"
       sodipodi:open="true"
       inkscape:transform-center-x="1.794704"
       inkscape:transform-center-y="40.79949"
       d="m -188.34775,33.593459 a 19.681105,19.681105 0 0 1 14.87784,-18.4857" />
    <path
       style="fill:none;fill-opacity:1;stroke:#ffffff;stroke-width:2.77283;stroke-linecap:butt;stroke-miterlimit:4;stroke-dasharray:none"
       id="path5630"
       sodipodi:type="arc"
       sodipodi:cx="102.31586"
       sodipodi:cy="139.49825"
       sodipodi:rx="12.719302"
       sodipodi:ry="12.642681"
       sodipodi:start="4.0851581"
       sodipodi:end="2.1588845"
       sodipodi:arc-type="arc"
       sodipodi:open="true"
       d="m 94.850835,129.26202 a 12.719302,12.642681 0 0 1 16.808585,1.65812 12.719302,12.642681 0 0 1 0.33056,16.7862 12.719302,12.642681 0 0 1 -16.730428,2.31065" />
    <path
       style="fill:none;fill-opacity:1;stroke:#ffffff;stroke-width:2.77283;stroke-linecap:butt;stroke-miterlimit:4;stroke-dasharray:none"
       id="path5632"
       sodipodi:type="arc"
       sodipodi:cx="102.22243"
       sodipodi:cy="139.54924"
       sodipodi:rx="6.4670005"
       sodipodi:ry="6.1266322"
       sodipodi:start="0.87221594"
       sodipodi:end="5.3624564"
       sodipodi:arc-type="arc"
       sodipodi:open="true"
       d="m 106.38156,144.24075 a 6.4670005,6.1266322 0 0 1 -8.790006,-0.41499 6.4670005,6.1266322 0 0 1 -0.213458,-8.33526 6.4670005,6.1266322 0 0 1 8.758424,-0.81832" />
  </g>
</svg>
