<?xml version="1.0" encoding="UTF-8" standalone="no"?>
<svg
   viewBox="0 0 236.53 30.82"
   version="1.1"
   id="svg28"
   sodipodi:docname="logoMD.svg"
   inkscape:version="1.1.2 (b8e25be833, 2022-02-05)"
   xmlns:inkscape="http://www.inkscape.org/namespaces/inkscape"
   xmlns:sodipodi="http://sodipodi.sourceforge.net/DTD/sodipodi-0.dtd"
   xmlns="http://www.w3.org/2000/svg"
   xmlns:svg="http://www.w3.org/2000/svg">
  <sodipodi:namedview
     id="namedview30"
     pagecolor="#505050"
     bordercolor="#eeeeee"
     borderopacity="1"
     inkscape:pageshadow="0"
     inkscape:pageopacity="0"
     inkscape:pagecheckerboard="0"
     showgrid="false"
     inkscape:zoom="4.6590285"
     inkscape:cx="118.15768"
     inkscape:cy="15.453866"
     inkscape:window-width="1920"
     inkscape:window-height="1017"
     inkscape:window-x="-8"
     inkscape:window-y="-8"
     inkscape:window-maximized="1"
     inkscape:current-layer="svg28" />
  <defs
     id="defs4">
    <style
       id="style2">.cls-1{fill:#e8423b;}</style>
  </defs>
  <g
     id="Capa_2"
     data-name="Capa 2"
     style="fill:#ede8e4;fill-opacity:1">
    <g
       id="Capa_1-2"
       data-name="Capa 1"
       style="fill:#ede8e4;fill-opacity:1">
      <path
         class="cls-1"
         d="M38.46,30.5a1.57,1.57,0,0,1-1.53-1.73c0-2.2,2.1-6.37,4.33-10.78,2.38-4.73,4.84-9.61,4.84-12.2,0-.09,0-1-.46-1-3,0-9.63,8.4-15,15.14S22.27,30.5,20.58,30.5A1.38,1.38,0,0,1,19.24,29c0-1.77,1.77-5,4-9.16,2.72-5,5.8-10.66,5.8-14.07,0-.42-.09-.93-.5-.93-2.65,0-8.34,6.9-13.36,13C9.58,24.61,4.72,30.5,1.82,30.5.94,30.5,0,29.9,0,28.22c0-5.08,9.19-20,10.24-21.71l.18-.28h4.64l-.79,1C11.16,11.05,3.07,21.93,3.07,26c0,.56.11.66.11.67h.1c1.74,0,6.7-6,11.08-11.35,6.37-7.74,12.38-15,16-15a2.24,2.24,0,0,1,2.13,2.46c0,4.25-3.86,11.48-7,17.28a59.93,59.93,0,0,0-3.17,6.46c1.33-1,4.72-5.37,7.27-8.67C36,9.62,43.14.31,47.42.31c1,0,2.12.7,2.12,2.66,0,3.25-3.1,9.6-5.82,15.2-1.53,3.14-3.59,7.36-3.66,8.5,1.42-.46,5-5.08,7.82-9.55l.18-.28h3.62l-.72,1C48.07,21.62,41.08,30.5,38.46,30.5Z"
         id="path6"
         style="fill:#ede8e4;fill-opacity:1" />
      <path
         class="cls-1"
         d="M53.3.55h3.94V30.26H53.3Z"
         id="path8"
         style="fill:#ede8e4;fill-opacity:1" />
      <path
         class="cls-1"
         d="M71.32,30.82a12.5,12.5,0,0,1-7.11-2,10.29,10.29,0,0,1-4.14-5.34l3.39-2Q65.2,27,71.4,27a7.47,7.47,0,0,0,4.67-1.25,4,4,0,0,0,1.61-3.33,3.52,3.52,0,0,0-1.61-3.18,23,23,0,0,0-5.39-2.25c-1.25-.4-2.19-.72-2.84-1a24.5,24.5,0,0,1-2.45-1.1,7.9,7.9,0,0,1-2.18-1.53,7.85,7.85,0,0,1-1.3-2.06,7,7,0,0,1-.57-2.89,7.59,7.59,0,0,1,2.72-6.13A10,10,0,0,1,70.68,0a10.58,10.58,0,0,1,6.13,1.78,11.15,11.15,0,0,1,3.93,4.71L77.43,8.4a6.81,6.81,0,0,0-6.75-4.58A6.1,6.1,0,0,0,66.77,5a3.9,3.9,0,0,0-1.48,3.22,3.46,3.46,0,0,0,1.4,3,18.45,18.45,0,0,0,4.84,2.12l1.74.55c.34.11.87.31,1.59.59s1.25.51,1.59.68.8.41,1.38.73a5.56,5.56,0,0,1,1.3.89c.28.28.61.63,1,1A3.89,3.89,0,0,1,81,19.06a10.15,10.15,0,0,1,.45,1.46,8.26,8.26,0,0,1,.19,1.76,7.59,7.59,0,0,1-2.85,6.22A11.34,11.34,0,0,1,71.32,30.82Z"
         id="path10"
         style="fill:#ede8e4;fill-opacity:1" />
      <path
         class="cls-1"
         d="M84.45.55h3.94V30.26H84.45Z"
         id="path12"
         style="fill:#ede8e4;fill-opacity:1" />
      <path
         class="cls-1"
         d="M118.35,26.32a15.5,15.5,0,0,1-21.84,0,14.9,14.9,0,0,1-4.46-10.91A14.87,14.87,0,0,1,96.51,4.48a15.55,15.55,0,0,1,21.84,0,14.88,14.88,0,0,1,4.47,10.93A14.91,14.91,0,0,1,118.35,26.32Zm-19.11-2.7a11.7,11.7,0,0,0,16.35,0,11.24,11.24,0,0,0,3.29-8.21,11.31,11.31,0,0,0-3.29-8.26,11.7,11.7,0,0,0-16.35,0A11.31,11.31,0,0,0,96,15.41,11.24,11.24,0,0,0,99.24,23.62Z"
         id="path14"
         style="fill:#ede8e4;fill-opacity:1" />
      <path
         class="cls-1"
         d="M144.16.55h4V30.26h-3.19L129.64,8.06v22.2H125.7V.55h3.18l15.28,22.16Z"
         id="path16"
         style="fill:#ede8e4;fill-opacity:1" />
      <path
         class="cls-1"
         d="M156.5,26.53h13.79v3.73H152.55V.55h17.53V4.29H156.5v9.12H169v3.7H156.5Z"
         id="path18"
         style="fill:#ede8e4;fill-opacity:1" />
      <path
         class="cls-1"
         d="M182.26,30.82a12.54,12.54,0,0,1-7.11-2A10.29,10.29,0,0,1,171,23.52l3.4-2q1.74,5.4,7.93,5.39A7.45,7.45,0,0,0,187,25.7a4,4,0,0,0,1.62-3.33A3.53,3.53,0,0,0,187,19.19a22.83,22.83,0,0,0-5.39-2.25c-1.24-.4-2.19-.72-2.84-1a24.49,24.49,0,0,1-2.44-1.1,7.82,7.82,0,0,1-2.19-1.53,7.59,7.59,0,0,1-1.29-2.06,7,7,0,0,1-.58-2.89A7.59,7.59,0,0,1,175,2.27,10,10,0,0,1,181.62,0a10.61,10.61,0,0,1,6.14,1.78,11.05,11.05,0,0,1,3.92,4.71L188.37,8.4a6.8,6.8,0,0,0-6.75-4.58A6.07,6.07,0,0,0,177.72,5a3.91,3.91,0,0,0-1.49,3.22,3.46,3.46,0,0,0,1.4,3,18.61,18.61,0,0,0,4.84,2.12l1.74.55c.34.11.87.31,1.59.59s1.26.51,1.6.68.8.41,1.38.73a5.27,5.27,0,0,1,1.29.89c.28.28.62.63,1,1a4.06,4.06,0,0,1,.83,1.25,10.21,10.21,0,0,1,.44,1.46,7.66,7.66,0,0,1,.19,1.76,7.61,7.61,0,0,1-2.84,6.22A11.37,11.37,0,0,1,182.26,30.82Z"
         id="path20"
         style="fill:#ede8e4;fill-opacity:1" />
      <path
         class="cls-1"
         d="M203.52,27.25a7.28,7.28,0,0,0,5.39-2.19,7.38,7.38,0,0,0,2.16-5.41,7.4,7.4,0,0,0-2.16-5.41,7.28,7.28,0,0,0-5.39-2.19,7.21,7.21,0,0,0-5.35,2.19A7.41,7.41,0,0,0,196,19.65a7.39,7.39,0,0,0,2.17,5.41A7.21,7.21,0,0,0,203.52,27.25Z"
         id="path22"
         style="fill:#ede8e4;fill-opacity:1" />
      <path
         class="cls-1"
         d="M232.84.55h3.69V30.26h-3.69V26.61a9,9,0,0,1-8,4.21,10.2,10.2,0,0,1-7.6-3.25,10.94,10.94,0,0,1-3.14-7.92,10.92,10.92,0,0,1,3.14-7.91,10.17,10.17,0,0,1,7.6-3.25,9,9,0,0,1,8,4.2Zm-7.56,26.7a7.27,7.27,0,0,0,5.39-2.19,7.35,7.35,0,0,0,2.17-5.41,7.37,7.37,0,0,0-2.17-5.41,7.67,7.67,0,0,0-10.73,0,7.37,7.37,0,0,0-2.17,5.41,7.35,7.35,0,0,0,2.17,5.41A7.2,7.2,0,0,0,225.28,27.25Z"
         id="path24"
         style="fill:#ede8e4;fill-opacity:1" />
    </g>
  </g>
</svg>
