<?xml version="1.0" encoding="UTF-8" standalone="no"?>
<svg
   viewBox="0 0 515.07 60.61"
   version="1.1"
   id="svg74"
   sodipodi:docname="logoMDpalabras.svg"
   inkscape:version="1.1.2 (b8e25be833, 2022-02-05)"
   xmlns:inkscape="http://www.inkscape.org/namespaces/inkscape"
   xmlns:sodipodi="http://sodipodi.sourceforge.net/DTD/sodipodi-0.dtd"
   xmlns="http://www.w3.org/2000/svg"
   xmlns:svg="http://www.w3.org/2000/svg">
  <sodipodi:namedview
     id="namedview76"
     pagecolor="#505050"
     bordercolor="#eeeeee"
     borderopacity="1"
     inkscape:pageshadow="0"
     inkscape:pageopacity="0"
     inkscape:pagecheckerboard="0"
     showgrid="false"
     inkscape:zoom="2.139515"
     inkscape:cx="257.3013"
     inkscape:cy="30.380717"
     inkscape:window-width="1920"
     inkscape:window-height="1017"
     inkscape:window-x="-8"
     inkscape:window-y="-8"
     inkscape:window-maximized="1"
     inkscape:current-layer="svg74" />
  <defs
     id="defs4">
    <style
       id="style2">.cls-1{fill:#e8423b;}</style>
  </defs>
  <g
     id="Capa_2"
     data-name="Capa 2"
     style="fill:#ede8e4;fill-opacity:1">
    <g
       id="Capa_1-2"
       data-name="Capa 1"
       style="fill:#ede8e4;fill-opacity:1">
      <path
         class="cls-1"
         d="M84.08,40.42v3a8.18,8.18,0,0,1-2.29.91,12.15,12.15,0,0,1-2.76.31,7.45,7.45,0,0,1-5.63-2.22,8,8,0,0,1-2.14-5.83,8.21,8.21,0,0,1,2.21-5.92,7.51,7.51,0,0,1,5.65-2.3,11.71,11.71,0,0,1,2.45.26,10.31,10.31,0,0,1,2.25.78v2.77a8.3,8.3,0,0,0-2-1,6.89,6.89,0,0,0-2.14-.34,5.42,5.42,0,0,0-4.08,1.59A5.84,5.84,0,0,0,74,36.68a5.36,5.36,0,0,0,1.54,3.89,5.22,5.22,0,0,0,3.87,1.56,6.71,6.71,0,0,0,2.29-.41A10.34,10.34,0,0,0,84.08,40.42Z"
         id="path6"
         style="fill:#ede8e4;fill-opacity:1" />
      <path
         class="cls-1"
         d="M87.2,21.65a1.8,1.8,0,0,1,.55-1.33,1.9,1.9,0,1,1,1.34,3.22A1.86,1.86,0,0,1,87.75,23,1.83,1.83,0,0,1,87.2,21.65ZM87.81,44V28.91h2.6V44Z"
         id="path8"
         style="fill:#ede8e4;fill-opacity:1" />
      <path
         class="cls-1"
         d="M98.27,28.91v7.42c0,2.17.33,3.68,1,4.54a4.75,4.75,0,0,0,6.49,0c.63-.85,1-2.37,1-4.56V28.91h2.64v8.8a7,7,0,0,1-1.75,5.17,7,7,0,0,1-5.14,1.76,6.87,6.87,0,0,1-5.11-1.77,7,7,0,0,1-1.75-5.16v-8.8Z"
         id="path10"
         style="fill:#ede8e4;fill-opacity:1" />
      <path
         class="cls-1"
         d="M128.35,18.45V44h-2.5V41.26a6.59,6.59,0,0,1-2.31,2.5,6,6,0,0,1-3.17.88,6.68,6.68,0,0,1-5.23-2.24,8.56,8.56,0,0,1-2-5.9,8.6,8.6,0,0,1,1.94-5.92,6.56,6.56,0,0,1,5.17-2.21,6.08,6.08,0,0,1,3.27.85,6.18,6.18,0,0,1,2.24,2.53V18.45Zm-2.5,18.08a5.77,5.77,0,0,0-1.41-4.06,4.74,4.74,0,0,0-3.69-1.55,4.58,4.58,0,0,0-3.57,1.41,5.48,5.48,0,0,0-1.29,3.87,6.71,6.71,0,0,0,1.3,4.36,4.42,4.42,0,0,0,3.6,1.57,4.73,4.73,0,0,0,3.71-1.48A5.89,5.89,0,0,0,125.85,36.53Z"
         id="path12"
         style="fill:#ede8e4;fill-opacity:1" />
      <path
         class="cls-1"
         d="M147.65,28.91V44h-2.51V41.26a6.55,6.55,0,0,1-2.31,2.51,5.89,5.89,0,0,1-3.16.87,6.66,6.66,0,0,1-5.23-2.24,8.56,8.56,0,0,1-2-5.9,8.71,8.71,0,0,1,1.93-5.93,6.52,6.52,0,0,1,5.16-2.2,5.82,5.82,0,0,1,5.54,3.38V28.91Zm-2.51,7.68a5.93,5.93,0,0,0-1.39-4.11,5.14,5.14,0,0,0-7.26-.12,5.72,5.72,0,0,0-1.3,4,6.18,6.18,0,0,0,1.31,4.22,4.69,4.69,0,0,0,3.72,1.49,4.64,4.64,0,0,0,3.61-1.45A5.74,5.74,0,0,0,145.14,36.59Z"
         id="path14"
         style="fill:#ede8e4;fill-opacity:1" />
      <path
         class="cls-1"
         d="M166.85,18.45V44h-2.51V41.26a6.49,6.49,0,0,1-2.3,2.5,6,6,0,0,1-3.17.88,6.66,6.66,0,0,1-5.23-2.24,8.51,8.51,0,0,1-2-5.9,8.61,8.61,0,0,1,1.95-5.92,6.55,6.55,0,0,1,5.17-2.21,5.79,5.79,0,0,1,5.51,3.38V18.45Zm-2.51,18.08a5.76,5.76,0,0,0-1.4-4.06,4.74,4.74,0,0,0-3.69-1.55,4.6,4.6,0,0,0-3.58,1.41,5.53,5.53,0,0,0-1.28,3.87,6.65,6.65,0,0,0,1.3,4.36,4.41,4.41,0,0,0,3.59,1.57A4.76,4.76,0,0,0,163,40.65,5.94,5.94,0,0,0,164.34,36.53Z"
         id="path16"
         style="fill:#ede8e4;fill-opacity:1" />
      <path
         class="cls-1"
         d="M186.15,28.91V44h-2.51V41.26a6.62,6.62,0,0,1-2.31,2.51,5.91,5.91,0,0,1-3.16.87,6.66,6.66,0,0,1-5.23-2.24,8.51,8.51,0,0,1-2-5.9,8.66,8.66,0,0,1,1.93-5.93,6.49,6.49,0,0,1,5.16-2.2,6.18,6.18,0,0,1,3.29.85,6.27,6.27,0,0,1,2.25,2.53V28.91Zm-2.51,7.68a5.93,5.93,0,0,0-1.39-4.11,5.14,5.14,0,0,0-7.26-.12,5.72,5.72,0,0,0-1.3,4A6.13,6.13,0,0,0,175,40.58a5.3,5.3,0,0,0,7.33,0A5.78,5.78,0,0,0,183.64,36.59Z"
         id="path18"
         style="fill:#ede8e4;fill-opacity:1" />
      <path
         class="cls-1"
         d="M191.3,44V28.91h2.53v2.33a6.16,6.16,0,0,1,2.34-2.16,6.78,6.78,0,0,1,3.16-.71,5.81,5.81,0,0,1,4.17,1.42,5.14,5.14,0,0,1,1.5,3.94V44h-2.64V35.11a5.09,5.09,0,0,0-1-3.4,3.75,3.75,0,0,0-3-1.12,5.12,5.12,0,0,0-2.1.43,4.13,4.13,0,0,0-1.57,1.19,3.76,3.76,0,0,0-.69,1.35,12.1,12.1,0,0,0-.2,2.64V44Z"
         id="path20"
         style="fill:#ede8e4;fill-opacity:1" />
      <path
         class="cls-1"
         d="M209.2,26.54l3.36-5.73h3.32l-4.7,5.73Zm1,17.45V28.91h2.6V44Z"
         id="path22"
         style="fill:#ede8e4;fill-opacity:1" />
      <path
         class="cls-1"
         d="M232.32,28.91V44h-2.5V41.26a6.65,6.65,0,0,1-2.32,2.51,5.88,5.88,0,0,1-3.15.87,6.68,6.68,0,0,1-5.24-2.24,8.56,8.56,0,0,1-2-5.9,8.66,8.66,0,0,1,1.93-5.93,6.49,6.49,0,0,1,5.15-2.2,5.82,5.82,0,0,1,5.54,3.38V28.91Zm-2.5,7.68a6,6,0,0,0-1.39-4.11,5.14,5.14,0,0,0-7.26-.12,5.72,5.72,0,0,0-1.31,4,6.18,6.18,0,0,0,1.31,4.22,4.72,4.72,0,0,0,3.72,1.49,4.66,4.66,0,0,0,3.62-1.45A5.78,5.78,0,0,0,229.82,36.59Z"
         id="path24"
         style="fill:#ede8e4;fill-opacity:1" />
      <path
         class="cls-1"
         d="M247.14,27.94h3.71v1.48a7.61,7.61,0,0,1,1.83-1.51,4.33,4.33,0,0,1,2-.41,4.91,4.91,0,0,1,4.3,2.37,5.59,5.59,0,0,1,4.73-2.37q5.43,0,5.43,6.57V44h-3.73V35.08a7,7,0,0,0-.56-3.27,2,2,0,0,0-1.89-1A2.43,2.43,0,0,0,260.74,32a7.46,7.46,0,0,0-.7,3.7V44h-3.72V35.13c0-2.86-.83-4.29-2.47-4.29A2.49,2.49,0,0,0,251.56,32a7.39,7.39,0,0,0-.71,3.69V44h-3.71Z"
         id="path26"
         style="fill:#ede8e4;fill-opacity:1" />
      <path
         class="cls-1"
         d="M273.28,21.27a2.42,2.42,0,0,1,2.4-2.39,2.33,2.33,0,0,1,1.72.71,2.27,2.27,0,0,1,.71,1.69A2.36,2.36,0,0,1,277.4,23a2.29,2.29,0,0,1-1.7.71,2.42,2.42,0,0,1-2.42-2.44Zm4.26,6.67V44h-3.7v-16Z"
         id="path28"
         style="fill:#ede8e4;fill-opacity:1" />
      <path
         class="cls-1"
         d="M291.57,30.68l-3.07,1.63c-.48-1-1.08-1.48-1.79-1.48a1.28,1.28,0,0,0-.88.33,1.15,1.15,0,0,0-.36.87c0,.61.72,1.22,2.14,1.83a12.67,12.67,0,0,1,4,2.34,4,4,0,0,1,1,2.88A5,5,0,0,1,290.89,43a6.14,6.14,0,0,1-9.74-2.45l3.17-1.47a7,7,0,0,0,1,1.47,2.33,2.33,0,0,0,1.62.62c1.25,0,1.88-.57,1.88-1.71,0-.66-.49-1.28-1.45-1.85L286.25,37l-1.14-.54a7,7,0,0,1-2.28-1.59,3.89,3.89,0,0,1-.84-2.58,4.59,4.59,0,0,1,1.44-3.47A5,5,0,0,1,287,27.5,4.86,4.86,0,0,1,291.57,30.68Z"
         id="path30"
         style="fill:#ede8e4;fill-opacity:1" />
      <path
         class="cls-1"
         d="M295.38,21.27a2.41,2.41,0,0,1,2.4-2.39,2.33,2.33,0,0,1,1.72.71,2.26,2.26,0,0,1,.7,1.69,2.35,2.35,0,0,1-.7,1.72,2.29,2.29,0,0,1-1.7.71,2.41,2.41,0,0,1-2.42-2.44Zm4.26,6.67V44h-3.7v-16Z"
         id="path32"
         style="fill:#ede8e4;fill-opacity:1" />
      <path
         class="cls-1"
         d="M303.58,35.85a8,8,0,0,1,2.49-5.91,8.78,8.78,0,0,1,12.16,0,8.18,8.18,0,0,1,2.48,6A8.12,8.12,0,0,1,318.22,42a8.5,8.5,0,0,1-6.15,2.43A8.16,8.16,0,0,1,306,42,8.33,8.33,0,0,1,303.58,35.85Zm3.79.07a5.38,5.38,0,0,0,1.29,3.8,5,5,0,0,0,6.95,0,5.26,5.26,0,0,0,1.3-3.74,5.26,5.26,0,0,0-1.3-3.74,4.93,4.93,0,0,0-6.92,0A5.16,5.16,0,0,0,307.37,35.92Z"
         id="path34"
         style="fill:#ede8e4;fill-opacity:1" />
      <path
         class="cls-1"
         d="M324.63,27.94h3.72v1.48a6.1,6.1,0,0,1,4.39-1.92,5.51,5.51,0,0,1,4.36,1.76q1.35,1.5,1.35,4.9V44h-3.72V35a5.87,5.87,0,0,0-.66-3.28,2.65,2.65,0,0,0-2.34-.92A2.87,2.87,0,0,0,329.11,32a8.5,8.5,0,0,0-.76,4.21V44h-3.72Z"
         id="path36"
         style="fill:#ede8e4;fill-opacity:1" />
      <path
         class="cls-1"
         d="M357.75,36.84h-11.5A4.88,4.88,0,0,0,347.54,40a3.89,3.89,0,0,0,2.91,1.15,3.77,3.77,0,0,0,2.29-.66,9.24,9.24,0,0,0,2-2.44l3.13,1.75a12.06,12.06,0,0,1-1.53,2.12,8.28,8.28,0,0,1-1.73,1.45,6.83,6.83,0,0,1-2,.83,9.55,9.55,0,0,1-2.33.27,7.56,7.56,0,0,1-5.77-2.31A8.67,8.67,0,0,1,342.38,36a8.88,8.88,0,0,1,2.11-6.16,8.05,8.05,0,0,1,11.24-.07,8.92,8.92,0,0,1,2,6.22Zm-3.8-3a3.56,3.56,0,0,0-3.74-3,3.76,3.76,0,0,0-1.27.21,3.54,3.54,0,0,0-1.08.59,3.69,3.69,0,0,0-.83.93,4.19,4.19,0,0,0-.53,1.24Z"
         id="path38"
         style="fill:#ede8e4;fill-opacity:1" />
      <path
         class="cls-1"
         d="M361.81,27.94h3.71v1.44a6.84,6.84,0,0,1,1.81-1.47,4.08,4.08,0,0,1,1.91-.41,6.07,6.07,0,0,1,3.07.95l-1.7,3.4a3.51,3.51,0,0,0-2.06-.76q-3,0-3,4.58V44h-3.71Z"
         id="path40"
         style="fill:#ede8e4;fill-opacity:1" />
      <path
         class="cls-1"
         d="M386,27.94h3.73V44H386V42.31a7.11,7.11,0,0,1-10.43-.26,9,9,0,0,1-2.16-6.13,8.69,8.69,0,0,1,2.16-6A7,7,0,0,1,381,27.5a6.84,6.84,0,0,1,5,2.3Zm-8.8,8a5.57,5.57,0,0,0,1.24,3.76,4.06,4.06,0,0,0,3.2,1.46A4.22,4.22,0,0,0,385,39.72,5.44,5.44,0,0,0,386.26,36,5.45,5.45,0,0,0,385,32.28a4.17,4.17,0,0,0-3.29-1.44,4.12,4.12,0,0,0-3.2,1.45A5.39,5.39,0,0,0,377.23,35.92Z"
         id="path42"
         style="fill:#ede8e4;fill-opacity:1" />
      <path
         class="cls-1"
         d="M418,16h6.14V44H418V42.07a6.41,6.41,0,0,1-5.3,2.46,8.25,8.25,0,0,1-3.47-.71,8.59,8.59,0,0,1-2.77-2,8.88,8.88,0,0,1-1.84-2.94,10.29,10.29,0,0,1,0-7.17,8.57,8.57,0,0,1,1.77-2.92,8.33,8.33,0,0,1,6.28-2.7A7,7,0,0,1,418,28.4Zm-7.69,19.31a4.1,4.1,0,0,0,.3,1.57,4,4,0,0,0,.83,1.26,3.62,3.62,0,0,0,1.25.84,3.86,3.86,0,0,0,1.57.31,3.77,3.77,0,0,0,1.53-.31,3.72,3.72,0,0,0,1.25-.84,4.29,4.29,0,0,0,.84-1.25,3.54,3.54,0,0,0,.32-1.52,3.62,3.62,0,0,0-.32-1.53,4.13,4.13,0,0,0-.84-1.27,3.72,3.72,0,0,0-1.25-.84,4,4,0,0,0-1.53-.31,4,4,0,0,0-1.54.31,3.62,3.62,0,0,0-1.25.84,4.33,4.33,0,0,0-.84,1.23A3.5,3.5,0,0,0,410.28,35.29Z"
         id="path44"
         style="fill:#ede8e4;fill-opacity:1" />
      <path
         class="cls-1"
         d="M427.86,20a3.29,3.29,0,0,1,.27-1.33A3.45,3.45,0,0,1,430,16.86a3.44,3.44,0,0,1,2.67,0,3.56,3.56,0,0,1,1.09.74,3.64,3.64,0,0,1,.75,1.1,3.41,3.41,0,0,1,0,2.66,3.52,3.52,0,0,1-.75,1.1,3.4,3.4,0,0,1-1.09.74,3.44,3.44,0,0,1-2.67,0,3.44,3.44,0,0,1-1.1-.74,3.49,3.49,0,0,1-.74-1.1A3.29,3.29,0,0,1,427.86,20Zm6.51,6.65V44h-6.1V26.68Z"
         id="path46"
         style="fill:#ede8e4;fill-opacity:1" />
      <path
         class="cls-1"
         d="M457.93,26.68V42.81a16.93,16.93,0,0,1-.17,2.6,11.27,11.27,0,0,1-.47,2A6.41,6.41,0,0,1,456,49.51,8.62,8.62,0,0,1,454,51.18a10.78,10.78,0,0,1-2.75,1.12,14,14,0,0,1-7-.1,10.09,10.09,0,0,1-3-1.41,8.1,8.1,0,0,1-2.08-2.09,7,7,0,0,1-1.08-2.61h6.89a2.75,2.75,0,0,0,2.9,1.72,3.87,3.87,0,0,0,3-1.08,4.17,4.17,0,0,0,1-3V42.07a9.63,9.63,0,0,1-1.3,1.06,7.09,7.09,0,0,1-1.26.69,6.16,6.16,0,0,1-1.35.39,9.29,9.29,0,0,1-1.55.12,8.78,8.78,0,0,1-3.41-.64,8,8,0,0,1-2.69-1.79,7.9,7.9,0,0,1-1.75-2.75,9.68,9.68,0,0,1-.63-3.56,10,10,0,0,1,.68-3.7,9.59,9.59,0,0,1,1.84-3,8.53,8.53,0,0,1,2.77-2,8.38,8.38,0,0,1,3.49-.72,6.69,6.69,0,0,1,5.16,2.29V26.68Zm-13.7,8.57a4.07,4.07,0,0,0,.3,1.57,4.11,4.11,0,0,0,.83,1.27,3.62,3.62,0,0,0,1.25.84,4.07,4.07,0,0,0,1.57.3,3.94,3.94,0,0,0,1.53-.3,3.62,3.62,0,0,0,1.25-.84,4.35,4.35,0,0,0,.85-1.27,3.78,3.78,0,0,0,.32-1.53,3.82,3.82,0,0,0-.32-1.56,4.35,4.35,0,0,0-.86-1.25,4.08,4.08,0,0,0-1.27-.84,3.86,3.86,0,0,0-1.5-.3,3.54,3.54,0,0,0-1.52.32,4.29,4.29,0,0,0-1.25.84,4,4,0,0,0-.86,1.23A3.73,3.73,0,0,0,444.23,35.25Z"
         id="path48"
         style="fill:#ede8e4;fill-opacity:1" />
      <path
         class="cls-1"
         d="M461.68,20A3.29,3.29,0,0,1,462,18.7a3.45,3.45,0,0,1,1.84-1.84,3.41,3.41,0,0,1,2.66,0,3.49,3.49,0,0,1,1.1.74,3.44,3.44,0,0,1,.74,1.1,3.41,3.41,0,0,1,0,2.66,3.45,3.45,0,0,1-1.84,1.84,3.41,3.41,0,0,1-2.66,0,3.44,3.44,0,0,1-1.1-.74,3.49,3.49,0,0,1-.74-1.1A3.29,3.29,0,0,1,461.68,20Zm6.51,6.65V44h-6.11V26.68Z"
         id="path50"
         style="fill:#ede8e4;fill-opacity:1" />
      <path
         class="cls-1"
         d="M479.19,31.78V44h-6.1V31.78h-2v-5.1h2v-5.2h6.1v5.2h3.48v5.1Z"
         id="path52"
         style="fill:#ede8e4;fill-opacity:1" />
      <path
         class="cls-1"
         d="M498.67,26.68h6.14V44h-6.14V42.07a6.42,6.42,0,0,1-5.3,2.46,8.65,8.65,0,0,1-3.48-.69,8.37,8.37,0,0,1-2.76-1.94A8.88,8.88,0,0,1,485.29,39a10,10,0,0,1-.66-3.67,9.7,9.7,0,0,1,.64-3.53,8.94,8.94,0,0,1,1.79-2.92,8.24,8.24,0,0,1,6.24-2.7,7.05,7.05,0,0,1,5.37,2.26ZM491,35.29a4.11,4.11,0,0,0,.31,1.57,4,4,0,0,0,.82,1.26,3.72,3.72,0,0,0,1.25.84,3.93,3.93,0,0,0,1.57.31,3.85,3.85,0,0,0,1.54-.31,3.72,3.72,0,0,0,1.25-.84,4.29,4.29,0,0,0,.84-1.25,3.7,3.7,0,0,0,.32-1.52,3.78,3.78,0,0,0-.32-1.53,4.13,4.13,0,0,0-.84-1.27,3.72,3.72,0,0,0-1.25-.84,4,4,0,0,0-1.54-.31,4.11,4.11,0,0,0-1.57.31,3.72,3.72,0,0,0-1.25.84,4.07,4.07,0,0,0-.82,1.23A3.81,3.81,0,0,0,491,35.29Z"
         id="path54"
         style="fill:#ede8e4;fill-opacity:1" />
      <path
         class="cls-1"
         d="M515.07,16V44H509V16Z"
         id="path56"
         style="fill:#ede8e4;fill-opacity:1" />
      <path
         class="cls-1"
         d="M33.52,30.6a5.94,5.94,0,0,1,4.21,1.74l.44.45,1.59-1.59-.44-.45a8.22,8.22,0,1,0,0,11.61l.44-.44-1.59-1.59-.44.44A6,6,0,1,1,33.52,30.6Z"
         id="path58"
         style="fill:#ede8e4;fill-opacity:1" />
      <path
         class="cls-1"
         d="M25.31,49.45l.3.18a15.3,15.3,0,1,0,0-26.14l-.3.18v2.69l1-.65a13.05,13.05,0,1,1,0,21.7l-1-.66Z"
         id="path60"
         style="fill:#ede8e4;fill-opacity:1" />
      <path
         class="cls-1"
         d="M41.92,54.83a19.81,19.81,0,0,1-8.4,1.86,20.1,20.1,0,0,1-16.78-9L16.31,47l-1.63,1.63.29.43a22.39,22.39,0,0,0,18.55,9.86,22.09,22.09,0,0,0,9.7-2.21l.8-.39-1.7-1.69Z"
         id="path62"
         style="fill:#ede8e4;fill-opacity:1" />
      <path
         class="cls-1"
         d="M33.52,2.25a34.18,34.18,0,0,1,17.86,5l.42.26,1.63-1.63-.67-.42A36.51,36.51,0,0,0,.18,21.59L0,22l1.71,1.71.37-.84A34.33,34.33,0,0,1,33.52,2.25Z"
         id="path64"
         style="fill:#ede8e4;fill-opacity:1" />
      <path
         class="cls-1"
         d="M48.48,19.92,48,19.53l-1.63,1.59.5.44a20.08,20.08,0,0,1-2.34,31.81l-.64.42,1.65,1.63.42-.29a22.37,22.37,0,0,0,2.48-35.21Z"
         id="path66"
         style="fill:#ede8e4;fill-opacity:1" />
      <path
         class="cls-1"
         d="M9.31,19.78l-.3.43,1.62,1.62.42-.62A27.19,27.19,0,0,1,54.6,19.36l.43.53,1.61-1.6-.37-.44a29.43,29.43,0,0,0-47,1.93Z"
         id="path68"
         style="fill:#ede8e4;fill-opacity:1" />
      <path
         class="cls-1"
         d="M6.3,36.56A26.88,26.88,0,0,1,9,24.7l.19-.4L7.54,22.63l-.38.77A29.05,29.05,0,0,0,4.05,36.56a29.6,29.6,0,0,0,12,23.73l.44.32L18.12,59l-.59-.43A27.35,27.35,0,0,1,6.3,36.56Z"
         id="path70"
         style="fill:#ede8e4;fill-opacity:1" />
    </g>
  </g>
</svg>
